<?xml version="1.0" standalone="no"?>
<!DOCTYPE svg PUBLIC "-//W3C//DTD SVG 20010904//EN"
 "http://www.w3.org/TR/2001/REC-SVG-20010904/DTD/svg10.dtd">
<svg version="1.0" xmlns="http://www.w3.org/2000/svg"
 width="358.000000pt" height="358.000000pt" viewBox="0 0 358.000000 358.000000"
 preserveAspectRatio="xMidYMid meet">
<metadata>
Created by potrace 1.14, written by Peter Selinger 2001-2017
</metadata>
<g transform="translate(0.000000,358.000000) scale(0.100000,-0.100000)"
fill="#000000" stroke="none">
<path d="M1575 3354 c-16 -3 -74 -13 -127 -24 -469 -93 -893 -425 -1102 -865
-156 -328 -197 -708 -111 -1045 43 -166 39 -161 73 -101 15 27 28 38 40 35
304 -66 532 -104 617 -104 91 0 216 19 273 42 26 10 26 10 6 18 -12 5 -219 48
-460 95 -242 48 -440 89 -442 90 -4 3 170 288 198 325 l17 23 114 -22 c133
-25 259 -27 358 -6 86 18 142 40 121 48 -8 3 -143 30 -299 61 -156 30 -285 57
-288 59 -2 2 52 93 119 202 167 268 258 364 444 470 78 45 214 94 312 114 215
44 409 -51 494 -239 16 -36 38 -84 49 -108 42 -93 211 -312 240 -312 5 0 -6
31 -25 68 -49 97 -101 260 -126 393 -12 63 -35 146 -52 186 -35 86 -108 192
-172 251 -25 23 -46 45 -46 48 0 3 24 16 53 29 89 42 174 28 228 -38 9 -12 19
-20 21 -17 2 3 19 43 37 90 18 47 44 104 57 127 13 23 24 44 24 46 0 8 -32 18
-130 39 -74 16 -138 21 -290 23 -107 2 -208 1 -225 -1z"/>
<path d="M2411 3165 c-120 -131 -190 -310 -191 -489 l0 -78 89 -84 89 -84 6
-67 c10 -97 18 -154 22 -151 5 6 41 181 74 363 35 188 55 241 114 291 37 32
96 60 96 46 0 -4 -25 -117 -55 -252 -31 -135 -67 -296 -81 -358 l-24 -114 34
-106 c21 -66 39 -148 46 -212 12 -109 6 -220 -13 -220 -12 0 -668 129 -937
185 -91 18 -167 31 -169 29 -3 -2 4 -50 13 -107 20 -114 185 -1030 243 -1344
l37 -203 38 0 c21 0 38 2 38 4 0 3 -9 51 -20 108 -41 219 -81 451 -78 460 5
13 428 -405 428 -422 0 -9 -18 -34 -40 -55 -67 -65 -55 -69 82 -25 241 79 443
204 629 390 347 346 512 808 459 1285 -57 509 -368 975 -812 1215 l-75 40 -42
-45z m-614 -1435 l108 -22 28 -49 c48 -87 165 -149 280 -149 72 0 115 22 135
70 11 26 22 38 32 36 8 -2 31 -7 50 -10 l36 -6 37 -208 c21 -114 38 -213 37
-219 -1 -35 -145 3 -200 53 -65 59 -62 124 6 124 27 0 37 -5 46 -25 6 -13 15
-22 19 -19 18 11 8 47 -21 76 -28 27 -36 30 -73 25 -46 -6 -82 -39 -93 -83
-16 -64 51 -167 143 -221 30 -17 42 -30 39 -42 -2 -9 -8 -35 -11 -59 -6 -38
-10 -43 -29 -39 -11 3 -81 17 -155 32 -127 25 -137 26 -168 11 -39 -19 -67
-73 -57 -111 3 -13 17 -36 31 -50 30 -29 73 -32 147 -10 54 16 163 20 185 6
11 -7 11 -16 -5 -56 -15 -41 -16 -55 -6 -105 18 -87 -9 -135 -82 -147 -65 -10
-135 34 -281 181 -136 137 -230 262 -241 322 -11 59 16 100 84 132 31 14 88
33 125 42 l68 16 -66 42 c-102 65 -145 145 -145 272 l0 66 -70 69 c-67 67 -85
93 -56 82 8 -3 63 -15 123 -27z"/>
<path d="M450 927 c0 -24 99 -146 122 -151 373 -81 538 -94 689 -56 46 12 88
26 94 31 5 5 6 9 3 9 -4 0 -96 18 -205 39 -109 22 -306 60 -438 86 -132 25
-246 48 -252 50 -7 2 -13 -1 -13 -8z"/>
</g>
</svg>
